<svg width="850" height="177" viewBox="0 0 850 177" fill="none" xmlns="http://www.w3.org/2000/svg">
<path d="M25.6582 0C27.1328 5.99628e-05 28.3279 1.13547 28.3281 2.53613L28.3281 85.2471C28.3281 85.8628 28.3722 86.4695 28.4561 87.0635C28.4735 87.1868 28.4834 87.3111 28.4834 87.4355L28.4834 96.2744C28.4834 97.6753 29.6786 98.8105 31.1533 98.8105H104.005C104.015 98.8103 104.023 98.8026 104.023 98.793C104.024 98.7833 104.032 98.7754 104.042 98.7754L129.836 98.7754C131.311 98.7754 132.506 99.9116 132.506 101.312V112.339C132.506 119.81 126.13 125.867 118.265 125.867H14.2412C6.37598 125.867 0 119.81 0 112.339L0 13.5283C0 6.05713 6.37598 0.000174287 14.2412 0L25.6582 0ZM122.586 48.5498C128.099 48.5498 132.568 53.0192 132.568 58.5322V66.5752C132.568 72.0882 128.099 76.5576 122.586 76.5576H51.4346C45.9216 76.5576 41.4522 72.0882 41.4521 66.5752L41.4521 58.5322C41.4521 53.0193 45.9216 48.5498 51.4346 48.5498L122.586 48.5498ZM122.586 0.0693359C128.099 0.0693359 132.568 4.53878 132.568 10.0518V18.0947C132.568 23.6077 128.099 28.0771 122.586 28.0771L51.4346 28.0771C45.9216 28.0771 41.4521 23.6077 41.4521 18.0947V10.0518C41.4521 4.5388 45.9216 0.0693728 51.4346 0.0693359L122.586 0.0693359Z" fill="url(#paint0_linear_9_3723)"/>
<path d="M234.78 25.5773H184.689V55.9515H228.929V65.791H184.689V87.1813C184.689 99.0173 189.826 104.294 201.529 104.294H234.78V114.846H199.531C178.695 114.846 171.56 108.001 171.56 88.3221V15.0247H234.78V25.5773Z" fill="black"/>
<path d="M492.121 38.3164H504.297L461.683 148.12H450.061L465.003 110.649L436.64 38.3164H449.231L470.538 96.1005L492.121 38.3164Z" fill="black"/>
<path d="M377.858 25.588H365.657V11.6973H377.858V25.588ZM377.858 39.2036V114.846H365.657V39.2036H377.858Z" fill="black"/>
<path d="M354.567 47.9895H330.12V91.1361C330.12 101.475 334.264 105.886 344.208 105.886H354.567V114.846H342.551C325.01 114.846 317.966 108.229 317.966 91.6875V18.3521H330.12V39.0293H354.567V47.9895Z" fill="black"/>
<path d="M425.55 47.9895H401.103V91.1361C401.103 101.475 405.247 105.886 415.191 105.886H425.55V114.846H413.534C395.993 114.846 388.949 108.229 388.949 91.6875V18.3521H401.103V39.0293H425.55V47.9895Z" fill="black"/>
<path d="M280.612 38.3164C298.666 38.3164 306.873 47.693 306.873 67.5494V114.846H294.836V67.5494C294.836 54.1739 289.365 47.2793 277.192 47.2793C263.515 47.2793 257.77 54.4497 257.77 68.6525V114.846H245.871V39.0059H257.77V48.934C262.01 41.7637 269.533 38.3164 280.612 38.3164Z" fill="black"/>
<path d="M524.635 132.582C525.258 131.491 526.171 130.6 527.373 129.91C528.575 129.22 529.944 128.875 531.481 128.875C533.128 128.875 534.609 129.264 535.922 130.044C537.236 130.823 538.271 131.925 539.028 133.35C539.785 134.752 540.163 136.389 540.163 138.259C540.163 140.107 539.785 141.754 539.028 143.201C538.271 144.648 537.225 145.773 535.889 146.574C534.575 147.376 533.106 147.776 531.481 147.776C529.9 147.776 528.508 147.431 527.306 146.741C526.126 146.051 525.236 145.172 524.635 144.103V147.476H521.596V122.763H524.635V132.582ZM537.058 138.259C537.058 136.878 536.779 135.676 536.223 134.652C535.666 133.628 534.909 132.849 533.952 132.314C533.017 131.78 531.981 131.513 530.846 131.513C529.733 131.513 528.698 131.791 527.74 132.348C526.805 132.882 526.048 133.672 525.469 134.719C524.913 135.743 524.635 136.934 524.635 138.292C524.635 139.672 524.913 140.886 525.469 141.932C526.048 142.956 526.805 143.747 527.74 144.303C528.698 144.838 529.733 145.105 530.846 145.105C531.981 145.105 533.017 144.838 533.952 144.303C534.909 143.747 535.666 142.956 536.223 141.932C536.779 140.886 537.058 139.661 537.058 138.259ZM559.926 129.175L548.906 156.092H545.766L549.373 147.275L541.993 129.175H545.366L551.11 144.003L556.787 129.175H559.926Z" fill="black"/>
<path d="M587.358 138.373C587.245 138.307 587.132 138.246 587.017 138.189C588.049 137.605 588.797 136.756 589.246 135.659C589.585 134.83 589.703 133.921 589.619 132.797C589.488 131.074 588.723 129.725 587.343 128.787C585.983 127.863 584.354 127.394 582.364 127.353C580.178 127.308 577.958 127.311 575.811 127.313C574.935 127.315 574.028 127.316 573.138 127.313C572.88 127.313 572.635 127.312 572.436 127.505C572.236 127.697 572.236 127.934 572.236 128.184V134.501V138.414C572.236 141.925 572.236 145.437 572.234 148.949V148.969C572.234 149.118 572.233 149.368 572.44 149.567C572.578 149.701 572.769 149.769 573.008 149.769H573.018C574.446 149.758 575.9 149.751 577.306 149.743C579.06 149.735 580.874 149.726 582.659 149.709C583.773 149.699 584.897 149.499 586.002 149.115C587.624 148.551 588.741 147.658 589.418 146.382C590.025 145.238 590.239 143.978 590.073 142.53C589.865 140.706 588.951 139.307 587.358 138.373ZM585.832 134.9C585.512 135.674 584.875 136.172 583.827 136.47C582.948 136.72 582.049 136.761 581.285 136.767C579.908 136.78 578.506 136.777 577.149 136.775C576.667 136.773 576.185 136.773 575.703 136.772C575.703 136.037 575.703 135.303 575.703 134.568V133.642C575.703 133.353 575.703 133.064 575.704 132.775C575.705 132.041 575.707 131.284 575.699 130.534C576.445 130.537 577.199 130.537 577.931 130.535C579.148 130.534 580.406 130.533 581.642 130.548C582.745 130.56 583.609 130.703 584.361 130.996C585.426 131.412 586.024 132.254 586.043 133.367C586.052 133.876 586.032 134.415 585.832 134.899V134.9ZM578.022 146.513C577.261 146.513 576.477 146.512 575.701 146.514C575.705 145.714 575.704 144.904 575.704 144.12C575.704 143.825 575.704 143.53 575.704 143.235C575.704 142.931 575.704 142.628 575.705 142.325C575.706 141.557 575.708 140.765 575.7 139.981C576.625 139.985 577.561 139.985 578.468 139.984C579.653 139.984 580.878 139.983 582.081 139.993C583.152 140.002 584.004 140.146 584.764 140.448C585.867 140.887 586.431 141.66 586.487 142.813C586.513 143.34 586.487 143.791 586.407 144.189C586.234 145.058 585.687 145.666 584.734 146.046C584.002 146.338 583.17 146.486 582.192 146.498C580.803 146.514 579.389 146.513 578.022 146.513Z" fill="#F27024"/>
<path d="M663.203 122.049C662.72 122.056 662.227 122.055 661.75 122.053C661.559 122.053 661.365 122.052 661.176 122.052C660.89 122.052 660.644 122.052 660.441 122.244C660.233 122.441 660.233 122.68 660.233 122.957V125.143C660.233 127.701 660.233 130.26 660.232 132.819C659.606 132.342 658.933 131.949 658.223 131.647C656.292 130.827 654.244 130.594 652.135 130.955C649.898 131.339 648.041 132.324 646.616 133.886C644.638 136.053 643.837 138.694 644.237 141.735C644.493 143.68 645.293 145.382 646.616 146.792C648.409 148.703 650.717 149.738 653.479 149.868C653.689 149.878 653.895 149.883 654.099 149.883C655.749 149.883 657.203 149.557 658.528 148.893C661.925 147.189 663.724 144.398 663.877 140.599C663.897 140.075 663.88 139.55 663.864 139.043C663.853 138.722 663.842 138.392 663.841 138.07C663.84 137.662 663.851 137.244 663.86 136.84C663.867 136.544 663.875 136.238 663.878 135.935C663.897 134.018 663.914 132.068 663.93 130.182L663.935 129.647C663.94 129 663.946 128.354 663.951 127.706C663.964 126.102 663.978 124.443 663.996 122.812C663.997 122.723 664 122.45 663.788 122.246C663.577 122.042 663.296 122.046 663.203 122.047L663.203 122.049ZM659.329 143.324C658.363 145.071 656.829 146.086 654.766 146.34C654.588 146.362 654.407 146.376 654.216 146.39C654.133 146.396 654.051 146.402 653.968 146.409C652.462 146.396 651.105 145.917 650.042 145.023C648.971 144.122 648.276 142.865 648.032 141.387C647.764 139.762 648.054 138.273 648.895 136.962C649.828 135.507 651.212 134.636 653.007 134.371C653.37 134.318 653.726 134.291 654.074 134.291C655.205 134.291 656.252 134.573 657.199 135.134C658.717 136.034 659.648 137.402 659.966 139.2C660.23 140.693 660.016 142.08 659.329 143.324H659.329Z" fill="#F27024"/>
<path d="M630.072 131.351C629.844 131.137 629.543 131.148 629.443 131.151C628.975 131.167 628.491 131.164 628.024 131.16C627.827 131.159 627.63 131.158 627.433 131.158C627.181 131.158 626.94 131.156 626.743 131.341C626.541 131.531 626.541 131.761 626.541 132.005V133.05C626.398 132.911 626.247 132.774 626.085 132.647C624.172 131.136 621.852 130.551 619.189 130.908C617.572 131.125 616.148 131.665 614.958 132.512C613.774 133.356 612.812 134.509 612.098 135.942C611.007 138.129 610.786 140.509 611.44 143.017C612.047 145.342 613.376 147.172 615.389 148.455C616.9 149.419 618.607 149.905 620.474 149.905C620.812 149.905 621.157 149.889 621.506 149.856C623.497 149.673 625.187 148.948 626.543 147.698C626.544 148.063 626.543 148.431 626.536 148.794C626.535 148.886 626.529 149.165 626.744 149.373C626.958 149.582 627.249 149.577 627.346 149.576C628.041 149.564 628.768 149.564 629.507 149.576C629.599 149.577 629.879 149.581 630.092 149.375C630.304 149.168 630.299 148.894 630.297 148.804C630.29 148.396 630.291 147.979 630.293 147.575C630.293 147.411 630.294 147.246 630.294 147.082V144.534C630.294 140.426 630.294 136.18 630.298 132.002C630.298 131.849 630.298 131.564 630.072 131.351ZM626.726 140.162C626.689 142.259 626.066 143.783 624.767 144.958C623.82 145.814 622.689 146.28 621.311 146.384C619.901 146.489 618.679 146.196 617.575 145.489C616.215 144.619 615.36 143.333 615.033 141.669C614.691 139.934 614.966 138.348 615.849 136.955C616.827 135.412 618.283 134.536 620.177 134.35C620.433 134.325 620.684 134.313 620.929 134.313C622.261 134.313 623.416 134.687 624.441 135.449C625.605 136.313 626.31 137.49 626.598 139.049C626.656 139.358 626.683 139.675 626.704 139.929C626.712 140.017 626.719 140.095 626.726 140.162Z" fill="#F27024"/>
<path d="M698.508 131.994C696.723 130.945 694.695 130.588 692.481 130.934C689.194 131.448 686.851 133.218 685.518 136.195C684.611 138.222 684.413 140.421 684.93 142.732C685.617 145.795 687.408 147.957 690.257 149.156C691.447 149.657 692.746 149.905 694.207 149.905C694.537 149.905 694.876 149.892 695.223 149.867C696.684 149.761 697.961 149.446 699.128 148.906C700.114 148.449 700.997 147.847 701.828 147.067L702.157 146.758L700.103 144.192L699.577 144.61C699.504 144.669 699.438 144.721 699.372 144.773C697.512 146.241 695.526 146.801 693.3 146.488C690.752 146.128 688.997 144.372 688.571 141.775H701.603C701.658 141.775 701.713 141.774 701.767 141.773C701.879 141.771 701.985 141.77 702.085 141.775C702.529 141.798 702.831 141.528 702.856 141.087C702.942 139.57 702.784 138.218 702.375 136.956C701.659 134.751 700.358 133.082 698.509 131.994H698.508ZM698.985 138.605H688.646C688.852 137.532 689.36 136.515 690.08 135.753C691.093 134.682 692.499 134.14 694.148 134.186C695.564 134.225 696.785 134.774 697.678 135.774C698.358 136.536 698.82 137.546 698.986 138.605H698.985Z" fill="#F27024"/>
<path d="M605.084 131.78C603.4 130.94 601.48 130.611 599.379 130.804C597.923 130.938 596.603 131.336 595.456 131.99C592.342 133.765 590.704 136.537 590.587 140.231V140.255L590.589 140.279C590.598 140.415 590.607 140.548 590.616 140.679C590.637 141.005 590.657 141.313 590.686 141.627C590.708 141.862 590.755 142.083 590.805 142.307C591.493 145.4 593.298 147.632 596.169 148.941C597.505 149.55 598.914 149.856 600.379 149.856C601.154 149.856 601.946 149.77 602.75 149.598C605.384 149.037 607.431 147.661 608.833 145.508C610.189 143.425 610.65 141.088 610.201 138.561C609.654 135.482 607.933 133.201 605.085 131.779L605.084 131.78ZM605.697 143.444C604.751 145.038 603.323 145.984 601.454 146.258C599.462 146.551 597.731 146.057 596.311 144.793C595.379 143.963 594.781 142.882 594.537 141.583C594.481 141.287 594.453 140.982 594.424 140.66C594.411 140.523 594.398 140.381 594.383 140.24C594.433 138.39 595.062 136.934 596.306 135.791C597.275 134.9 598.435 134.405 599.851 134.279C601.522 134.13 602.941 134.508 604.191 135.436C605.486 136.398 606.252 137.736 606.465 139.413C606.658 140.932 606.407 142.25 605.698 143.443L605.697 143.444Z" fill="#F27024"/>
<path d="M745.963 130.751C745.934 130.751 745.906 130.751 745.877 130.751C743.168 130.751 740.673 131.72 738.843 133.486C737.013 135.251 736.006 137.666 736.009 140.285C736.012 142.876 737.004 145.28 738.802 147.055C740.597 148.827 743.039 149.82 745.678 149.85C745.723 149.85 745.767 149.85 745.811 149.85C748.566 149.85 751.093 148.873 752.938 147.091C754.774 145.317 755.776 142.902 755.76 140.291C755.772 137.671 754.771 135.257 752.939 133.492C751.125 131.745 748.648 130.772 745.963 130.751L745.963 130.751ZM751.951 140.178C751.868 142.649 750.961 144.333 749.099 145.476C747.995 146.153 746.722 146.436 745.314 146.317C743.764 146.185 742.514 145.617 741.493 144.581C740.599 143.673 740.058 142.543 739.886 141.223C739.685 139.683 739.926 138.353 740.623 137.158C741.548 135.572 742.964 134.624 744.829 134.338C745.219 134.279 745.599 134.249 745.968 134.249C747.536 134.249 748.916 134.784 750.085 135.845C750.997 136.673 751.58 137.751 751.819 139.05C751.873 139.341 751.9 139.64 751.925 139.904C751.934 140.002 751.942 140.095 751.951 140.178Z" fill="#F27024"/>
<path d="M733.824 145.21C733.793 145.228 733.765 145.244 733.74 145.259C733.682 145.292 733.634 145.319 733.588 145.347C732.337 146.124 731.115 146.441 729.853 146.313C728.883 146.215 728.195 145.806 727.752 145.062C727.306 144.315 727.243 143.47 727.241 142.741C727.233 140.682 727.235 138.588 727.236 136.563C727.236 135.879 727.237 135.195 727.237 134.511H728.601C730.422 134.51 732.305 134.51 734.156 134.516H734.163C734.336 134.516 734.585 134.493 734.777 134.302C734.971 134.109 734.987 133.865 734.983 133.698C734.965 133.036 734.965 132.453 734.984 131.916C734.987 131.819 734.997 131.526 734.779 131.306C734.56 131.087 734.261 131.088 734.133 131.088C732.328 131.095 730.492 131.094 728.716 131.093H727.237C727.237 130.738 727.237 130.382 727.237 130.027C727.237 128.816 727.236 127.563 727.242 126.332C727.243 126.167 727.221 125.927 727.025 125.739C726.807 125.53 726.516 125.536 726.42 125.538C725.937 125.548 725.442 125.546 724.963 125.544C724.764 125.544 724.564 125.543 724.366 125.542C724.116 125.542 723.879 125.542 723.684 125.73C723.486 125.92 723.486 126.15 723.486 126.393C723.486 127.721 723.486 129.049 723.485 130.376C723.483 134.489 723.481 138.743 723.499 142.926C723.503 143.75 723.602 144.58 723.796 145.394C724.339 147.686 725.851 149.156 728.166 149.645C728.826 149.785 729.483 149.854 730.137 149.854C731.324 149.854 732.496 149.624 733.64 149.166C734.384 148.868 735.048 148.495 735.671 148.026L736.033 147.753L734.257 144.96L733.826 145.208L733.824 145.21Z" fill="#F27024"/>
<path d="M718.89 144.437C718.872 144.445 718.859 144.451 718.849 144.455C718.812 144.471 718.751 144.497 718.688 144.549C718.648 144.581 718.61 144.614 718.571 144.647C718.545 144.669 718.519 144.691 718.493 144.713C716.984 145.969 715.395 146.507 713.635 146.361C711.749 146.204 710.288 145.34 709.291 143.793C708.338 142.313 708.079 140.654 708.501 138.72C708.775 137.464 709.485 136.331 710.501 135.53C711.517 134.73 712.802 134.289 714.119 134.289H714.121C715.654 134.289 716.996 134.774 718.223 135.771C718.329 135.857 718.434 135.946 718.545 136.04C718.598 136.085 718.653 136.132 718.709 136.179L719.078 136.49L721.428 134.071L721.195 133.742C720.761 133.129 719.673 132.282 718.718 131.813C716.692 130.817 714.475 130.542 712.127 130.996C708.859 131.627 706.553 133.448 705.275 136.409C704.464 138.288 704.278 140.332 704.723 142.481C705.296 145.245 706.814 147.327 709.238 148.667C710.704 149.478 712.349 149.887 714.138 149.887C714.467 149.887 714.801 149.873 715.139 149.845C716.857 149.705 718.375 149.189 719.652 148.312C720.021 148.058 720.364 147.769 720.697 147.49C720.847 147.363 721.003 147.232 721.16 147.105L721.568 146.775L719.232 144.277L718.89 144.437Z" fill="#F27024"/>
<path d="M644.547 132.64C644.628 132.351 644.661 131.832 643.974 131.602C642.789 131.206 641.53 131.063 640.233 131.176C638.603 131.319 637.199 131.971 636.053 133.117C636.053 132.84 636.054 132.56 636.061 132.285C636.063 132.194 636.07 131.915 635.854 131.703C635.639 131.492 635.349 131.495 635.253 131.497C634.455 131.508 633.757 131.508 633.121 131.496C633.028 131.494 632.742 131.489 632.524 131.697C632.305 131.906 632.306 132.189 632.306 132.295C632.311 138.267 632.311 143.763 632.305 149.099C632.305 149.192 632.305 149.473 632.521 149.681C632.715 149.866 632.964 149.882 633.092 149.882C633.107 149.882 633.121 149.882 633.133 149.882C633.615 149.873 634.108 149.875 634.586 149.876C634.787 149.876 634.987 149.877 635.188 149.877C635.439 149.877 635.676 149.877 635.871 149.682C636.062 149.492 636.062 149.262 636.062 149.019C636.062 148.216 636.062 147.413 636.061 146.611C636.059 144.43 636.057 142.176 636.069 139.959C636.073 139.375 636.125 138.788 636.227 138.216C636.442 136.998 637.09 135.976 638.052 135.339C639.007 134.706 640.212 134.494 641.445 134.742C641.862 134.826 642.275 134.94 642.712 135.06C642.915 135.116 643.126 135.175 643.34 135.23L643.793 135.348L643.948 134.929C643.962 134.895 643.996 134.817 644.018 134.727C644.074 134.507 644.128 134.286 644.182 134.065C644.297 133.596 644.416 133.109 644.547 132.639V132.64Z" fill="#F27024"/>
<path d="M684.025 131.612C682.835 131.21 681.567 131.062 680.257 131.176C678.649 131.315 677.258 131.954 676.121 133.075C676.112 133.085 676.102 133.095 676.092 133.104C676.092 132.836 676.095 132.572 676.101 132.31C676.103 132.213 676.11 131.922 675.889 131.706C675.667 131.489 675.37 131.495 675.258 131.497C674.79 131.506 674.311 131.504 673.848 131.503C673.643 131.503 673.437 131.502 673.232 131.502C672.981 131.502 672.743 131.502 672.548 131.691C672.35 131.881 672.35 132.112 672.35 132.356V139.034V142.471C672.35 144.636 672.352 146.876 672.345 149.078C672.345 149.185 672.344 149.472 672.565 149.683C672.763 149.871 673.012 149.888 673.184 149.883C673.948 149.866 674.614 149.866 675.219 149.884C675.237 149.884 675.256 149.885 675.275 149.885C675.454 149.885 675.69 149.856 675.876 149.68C676.081 149.487 676.106 149.234 676.105 149.037C676.095 145.823 676.094 142.851 676.104 139.951C676.106 139.366 676.142 138.864 676.213 138.416C676.402 137.239 676.885 136.328 677.691 135.632C678.684 134.772 679.919 134.481 681.467 134.742C681.884 134.812 682.298 134.932 682.736 135.058C682.94 135.117 683.15 135.177 683.364 135.233L683.822 135.357L683.977 134.92L683.984 134.903C684.002 134.857 684.033 134.78 684.055 134.691C684.11 134.475 684.162 134.258 684.215 134.041C684.328 133.576 684.445 133.095 684.576 132.631C684.714 132.141 684.519 131.78 684.026 131.613L684.025 131.612Z" fill="#F27024"/>
<path d="M769.398 131.651C768.23 131.237 766.998 131.088 765.632 131.194C764.115 131.312 762.785 131.881 761.681 132.886C761.585 132.973 761.494 133.062 761.405 133.153C761.405 133.118 761.405 133.083 761.405 133.048C761.405 132.827 761.405 132.606 761.405 132.384C761.405 132.134 761.405 131.898 761.2 131.705C761.003 131.52 760.771 131.52 760.502 131.519C760.306 131.519 760.111 131.52 759.916 131.521C759.472 131.523 759.013 131.525 758.565 131.514C758.385 131.509 758.122 131.525 757.917 131.72C757.712 131.915 757.688 132.17 757.688 132.344C757.696 137.585 757.696 143.062 757.69 149.091C757.69 149.2 757.69 149.49 757.911 149.701C758.104 149.884 758.354 149.901 758.479 149.901C758.497 149.901 758.513 149.901 758.526 149.901C759 149.889 759.487 149.891 759.957 149.894C760.149 149.895 760.341 149.895 760.533 149.895C760.806 149.895 761.042 149.899 761.243 149.71C761.447 149.518 761.447 149.283 761.447 149.034V146.478C761.447 144.145 761.448 141.813 761.447 139.48C761.447 138.702 761.59 137.964 761.874 137.287C762.435 135.949 763.356 135.135 764.688 134.801C765.529 134.59 766.439 134.626 767.55 134.915C767.791 134.977 768.033 135.064 768.29 135.155C768.416 135.2 768.542 135.245 768.672 135.289L769.201 135.467L769.334 134.938C769.388 134.718 769.443 134.499 769.496 134.281C769.64 133.7 769.775 133.15 769.925 132.594C769.995 132.337 770.019 131.871 769.4 131.651H769.398Z" fill="#F27024"/>
<path d="M669.826 147.319C669.826 147.097 669.827 146.876 669.827 146.654V132.374C669.827 132.097 669.827 131.857 669.619 131.66C669.417 131.468 669.17 131.468 668.884 131.468C668.692 131.468 668.5 131.469 668.308 131.47C667.861 131.473 667.399 131.475 666.95 131.461C666.768 131.456 666.503 131.471 666.295 131.667C666.089 131.861 666.063 132.115 666.064 132.315C666.072 134.484 666.071 136.69 666.071 138.822C666.071 139.435 666.071 140.049 666.071 140.662V142.397C666.071 144.573 666.072 146.824 666.066 149.036C666.066 149.157 666.065 149.439 666.286 149.648C666.48 149.832 666.729 149.85 666.854 149.85C666.871 149.85 666.886 149.85 666.898 149.849C667.537 149.834 668.233 149.834 669.025 149.848C669.119 149.85 669.406 149.855 669.621 149.647C669.837 149.439 669.833 149.157 669.832 149.064C669.825 148.483 669.826 147.891 669.827 147.318L669.826 147.319Z" fill="#F27024"/>
<path d="M578.099 104.176V114.846H540.673C522.246 114.846 515.389 108.79 515.389 92.2088V13.9156H528.531V88.6042C528.531 99.9949 532.817 104.176 544.387 104.176H578.099Z" fill="black"/>
<path d="M712.834 15.0247V114.846H698.395V15.0247H712.834ZM752.17 114.846L713 74.5183L749.017 41.6438H765.116L727.938 74.5183L768.269 114.846H752.17Z" fill="black"/>
<path d="M656.267 37.2072C677.604 37.2072 687.303 46.7197 687.303 66.8638V114.846H673.078V66.8638C673.078 53.2945 666.613 46.3 652.226 46.3C636.062 46.3 629.273 53.5743 629.273 67.9829V114.846H615.21V37.9066H629.273V47.9787C634.284 40.7044 643.174 37.2072 656.267 37.2072Z" fill="black"/>
<path d="M604.119 27.5076H589.7V13.9156H604.119V27.5076ZM604.119 40.8304V114.846H589.7V40.8304H604.119Z" fill="black"/>
<defs>
<linearGradient id="paint0_linear_9_3723" x1="0" y1="58.2136" x2="132.568" y2="58.2136" gradientUnits="userSpaceOnUse">
<stop stop-color="#F8A21B"/>
<stop offset="0.544" stop-color="#F58720"/>
<stop offset="1" stop-color="#F27024"/>
</linearGradient>
</defs>
</svg>
